<svg aria-hidden="true" style="position: absolute; width: 0; height: 0; overflow: hidden;" version="1.1" xmlns="http://www.w3.org/2000/svg" xmlns:xlink="http://www.w3.org/1999/xlink">
<defs>
<symbol id="icon-snapchat" viewBox="0 0 32 32">
<path d="M31.886 23.052c-0.222-0.606-0.646-0.93-1.128-1.198-0.069-0.043-0.149-0.086-0.233-0.123l-0.013-0.005-0.438-0.222c-1.504-0.798-2.678-1.804-3.492-2.996-0.214-0.305-0.414-0.654-0.583-1.020l-0.017-0.042c-0.068-0.2-0.064-0.312-0.016-0.414 0.049-0.082 0.114-0.149 0.192-0.199l0.002-0.001c0.258-0.172 0.524-0.346 0.704-0.462 0.324-0.208 0.578-0.374 0.742-0.49 0.618-0.432 1.050-0.892 1.32-1.404 0.205-0.38 0.326-0.831 0.326-1.311 0-0.363-0.069-0.71-0.195-1.028l0.007 0.019c-0.41-1.076-1.426-1.744-2.658-1.744-0.005-0-0.010-0-0.015-0-0.341 0-0.671 0.047-0.984 0.136l0.025-0.006c0.012-0.736-0.004-1.514-0.070-2.278-0.232-2.688-1.174-4.096-2.154-5.22-0.621-0.693-1.344-1.28-2.148-1.74l-0.042-0.022c-1.49-0.85-3.178-1.282-5.020-1.282s-3.52 0.432-5.010 1.282c-0.824 0.464-1.564 1.060-2.194 1.766-0.98 1.124-1.92 2.534-2.154 5.22-0.066 0.764-0.080 1.544-0.072 2.276-0.287-0.083-0.618-0.13-0.959-0.13-0.005 0-0.011 0-0.016 0h0.001c-1.23 0-2.248 0.67-2.656 1.746-0.12 0.301-0.19 0.649-0.19 1.014 0 0.478 0.12 0.929 0.332 1.323l-0.007-0.015c0.272 0.512 0.704 0.972 1.32 1.402 0.164 0.116 0.42 0.28 0.742 0.492l0.678 0.442c0.087 0.059 0.159 0.133 0.216 0.217l0.002 0.003c0.052 0.106 0.054 0.22-0.024 0.434-0.184 0.4-0.381 0.741-0.605 1.062l0.015-0.022c-0.796 1.166-1.936 2.154-3.392 2.944-0.77 0.408-1.572 0.68-1.91 1.6-0.256 0.696-0.088 1.486 0.56 2.15q0.36 0.378 0.818 0.62c0.574 0.323 1.239 0.596 1.938 0.786l0.062 0.014c0.154 0.042 0.288 0.103 0.409 0.183l-0.005-0.003c0.236 0.208 0.204 0.52 0.518 0.976q0.24 0.356 0.592 0.6c0.66 0.458 1.402 0.486 2.19 0.516 0.71 0.028 1.516 0.060 2.434 0.36 0.38 0.128 0.778 0.372 1.236 0.656 1.1 0.676 2.61 1.604 5.132 1.604 2.524 0 4.040-0.932 5.152-1.612 0.454-0.28 0.848-0.52 1.218-0.642 0.92-0.304 1.726-0.336 2.436-0.362 0.786-0.030 1.528-0.060 2.19-0.516 0.275-0.194 0.501-0.44 0.666-0.725l0.006-0.011c0.228-0.384 0.22-0.654 0.434-0.84 0.109-0.076 0.235-0.136 0.372-0.172l0.008-0.002c0.772-0.206 1.446-0.482 2.074-0.831l-0.046 0.023c0.32-0.174 0.612-0.4 0.858-0.672l0.008-0.010c0.608-0.65 0.76-1.418 0.512-2.094zM29.644 24.256c-1.368 0.756-2.278 0.674-2.986 1.13-0.6 0.386-0.244 1.22-0.68 1.52-0.538 0.372-2.122-0.024-4.17 0.652-1.69 0.558-2.768 2.164-5.806 2.164s-4.090-1.602-5.808-2.168c-2.044-0.676-3.632-0.28-4.168-0.65-0.436-0.3-0.082-1.136-0.682-1.522-0.708-0.456-1.618-0.374-2.984-1.126-0.872-0.48-0.378-0.78-0.088-0.92 4.956-2.398 5.746-6.1 5.78-6.376 0.044-0.332 0.090-0.594-0.276-0.932-0.354-0.328-1.924-1.3-2.36-1.604-0.72-0.504-1.040-1.006-0.804-1.624 0.164-0.428 0.562-0.59 0.98-0.59 0.141 0.002 0.276 0.018 0.407 0.046l-0.013-0.002c0.792 0.172 1.56 0.57 2.004 0.676q0.080 0.020 0.164 0.022c0.236 0 0.32-0.12 0.304-0.39-0.052-0.866-0.174-2.554-0.038-4.132 0.188-2.168 0.888-3.244 1.718-4.194 0.4-0.458 2.274-2.44 5.86-2.44 3.584 0 5.464 1.974 5.862 2.43 0.832 0.95 1.532 2.026 1.718 4.196 0.136 1.576 0.018 3.264-0.038 4.13-0.020 0.284 0.068 0.39 0.304 0.39 0.059-0.001 0.115-0.008 0.169-0.021l-0.005 0.001c0.444-0.108 1.214-0.506 2.004-0.676 0.117-0.027 0.253-0.044 0.392-0.046l0.002-0c0.42 0 0.818 0.164 0.98 0.59 0.234 0.618-0.080 1.12-0.802 1.624-0.436 0.304-2.006 1.276-2.36 1.604-0.368 0.338-0.32 0.6-0.278 0.932 0.036 0.28 0.826 3.982 5.78 6.378 0.294 0.146 0.788 0.444-0.082 0.928z"></path>
</symbol>
<symbol id="icon-telegram" viewBox="0 0 32 32">
<path d="M32 16c0 8.837-7.163 16-16 16s-16-7.163-16-16v0c0-8.837 7.163-16 16-16s16 7.163 16 16v0zM16.574 11.812q-2.336 0.972-9.332 4.020-1.134 0.45-1.19 0.884c-0.060 0.486 0.55 0.678 1.38 0.94l0.35 0.11c0.816 0.266 1.916 0.576 2.486 0.588q0.78 0.020 1.736-0.64 6.538-4.412 6.748-4.46c0.1-0.024 0.24-0.052 0.332 0.032s0.084 0.24 0.074 0.282c-0.060 0.258-2.454 2.482-3.692 3.634-0.386 0.36-0.66 0.614-0.716 0.672-0.123 0.126-0.246 0.247-0.37 0.367l-0.006 0.005c-0.76 0.732-1.328 1.28 0.030 2.176 0.654 0.432 1.178 0.786 1.7 1.142 0.568 0.388 1.136 0.774 1.872 1.258q0.28 0.184 0.54 0.374c0.662 0.472 1.26 0.896 1.994 0.828 0.428-0.040 0.87-0.44 1.094-1.64 0.53-2.834 1.572-8.972 1.812-11.502 0.005-0.060 0.007-0.13 0.007-0.2 0-0.152-0.012-0.301-0.035-0.446l0.002 0.016c-0.021-0.174-0.104-0.325-0.227-0.433l-0.001-0.001c-0.168-0.117-0.376-0.186-0.6-0.186-0.007 0-0.014 0-0.021 0l0.001-0c-0.6 0.010-1.526 0.332-5.968 2.18z"></path>
</symbol>
<symbol id="icon-linkedin" viewBox="0 0 32 32">
<path d="M0 2.292c0-1.266 1.052-2.292 2.35-2.292h27.3c1.298 0 2.35 1.026 2.35 2.292v27.416c0 1.266-1.052 2.292-2.35 2.292h-27.3c-1.298 0-2.35-1.026-2.35-2.292zM9.886 26.788v-14.45h-4.802v14.45zM7.486 10.364c1.674 0 2.716-1.108 2.716-2.496-0.030-1.418-1.040-2.496-2.684-2.496s-2.718 1.080-2.718 2.496c0 1.388 1.042 2.496 2.654 2.496zM17.302 26.788v-8.070c0-0.432 0.032-0.864 0.16-1.172 0.346-0.862 1.136-1.756 2.464-1.756 1.738 0 2.432 1.324 2.432 3.268v7.73h4.802v-8.288c0-4.44-2.368-6.504-5.528-6.504-2.548 0-3.69 1.4-4.33 2.386v0.050h-0.032l0.032-0.050v-2.044h-4.8c0.060 1.356 0 14.45 0 14.45z"></path>
</symbol>
<symbol id="icon-tiktok" viewBox="0 0 32 32">
<path d="M18 0h3.96c0.288 1.43 1.080 3.234 2.47 5.024 1.36 1.754 3.164 2.976 5.57 2.976v4c-3.506 0-6.14-1.628-8-3.658v13.658c0 5.523-4.477 10-10 10s-10-4.477-10-10c0-5.523 4.477-10 10-10v0 4c-3.314 0-6 2.686-6 6s2.686 6 6 6c3.314 0 6-2.686 6-6v0z"></path>
</symbol>
<symbol id="icon-whatsapp" viewBox="0 0 32 32">
<path d="M27.202 4.652c-2.846-2.873-6.793-4.652-11.155-4.652-0.021 0-0.041 0-0.062 0h0.003c-8.734 0-15.852 7.116-15.86 15.852 0 2.798 0.732 5.52 2.114 7.93l-2.242 8.218 8.408-2.204c2.185 1.215 4.793 1.93 7.567 1.93 0.004 0 0.009 0 0.013 0h0.007c8.736 0 15.852-7.116 15.86-15.86 0-0.004 0-0.009 0-0.014 0-4.377-1.78-8.338-4.655-11.2l-0.001-0.001zM15.988 29.042c-2.476-0.002-4.793-0.686-6.772-1.873l0.060 0.033-0.48-0.288-4.988 1.308 1.332-4.866-0.312-0.502c-1.264-1.981-2.014-4.395-2.014-6.985 0-0.009 0-0.018 0-0.026v0.001c0-7.252 5.914-13.168 13.182-13.168 0.007 0 0.015-0 0.024-0 3.633 0 6.92 1.476 9.296 3.862l0 0c2.382 2.376 3.856 5.661 3.856 9.29 0 0.010 0 0.021-0 0.031v-0.002c-0.008 7.278-5.922 13.184-13.184 13.184zM23.218 19.174c-0.394-0.198-2.34-1.156-2.706-1.292-0.364-0.13-0.63-0.198-0.89 0.198-0.266 0.394-1.026 1.292-1.254 1.55-0.228 0.266-0.464 0.296-0.86 0.1-0.394-0.2-1.672-0.616-3.184-1.97-1.18-1.050-1.97-2.35-2.206-2.744-0.228-0.396-0.022-0.608 0.176-0.806 0.174-0.176 0.394-0.464 0.592-0.692 0.2-0.228 0.266-0.396 0.396-0.66 0.13-0.268 0.068-0.496-0.030-0.694-0.1-0.198-0.89-2.152-1.224-2.94-0.32-0.778-0.646-0.67-0.89-0.68-0.228-0.014-0.494-0.014-0.76-0.014-0.422 0.011-0.797 0.199-1.057 0.492l-0.001 0.002c-0.364 0.396-1.382 1.354-1.382 3.308s1.42 3.832 1.62 4.098c0.196 0.266 2.788 4.264 6.766 5.984 0.94 0.41 1.68 0.652 2.258 0.836 0.95 0.304 1.808 0.258 2.492 0.16 0.76-0.116 2.342-0.96 2.676-1.886 0.328-0.928 0.328-1.72 0.228-1.886-0.098-0.168-0.364-0.266-0.76-0.464z"></path>
</symbol>
<symbol id="icon-github" viewBox="0 0 32 32">
<path d="M16 0c-8.84 0-16 7.16-16 16 0 7.080 4.58 13.060 10.94 15.18 0.8 0.14 1.1-0.34 1.1-0.76 0-0.38-0.020-1.64-0.020-2.98-4.020 0.74-5.060-0.98-5.38-1.88-0.18-0.46-0.96-1.88-1.64-2.26-0.56-0.3-1.36-1.040-0.020-1.060 1.26-0.020 2.16 1.16 2.46 1.64 1.44 2.42 3.74 1.74 4.66 1.32 0.14-1.040 0.56-1.74 1.020-2.14-3.56-0.4-7.28-1.78-7.28-7.9 0-1.74 0.62-3.18 1.64-4.3-0.16-0.4-0.72-2.040 0.16-4.24 0 0 1.34-0.42 4.4 1.64 1.28-0.36 2.64-0.54 4-0.54s2.72 0.18 4 0.54c3.060-2.080 4.4-1.64 4.4-1.64 0.88 2.2 0.32 3.84 0.16 4.24 1.020 1.12 1.64 2.54 1.64 4.3 0 6.14-3.74 7.5-7.3 7.9 0.58 0.5 1.080 1.46 1.080 2.96 0 2.14-0.020 3.86-0.020 4.4 0 0.42 0.3 0.92 1.1 0.76 6.391-2.202 10.9-8.165 10.9-15.18 0-0 0-0 0-0v0c0-8.84-7.16-16-16-16z"></path>
</symbol>
<symbol id="icon-twitter-x" viewBox="0 0 32 32">
<path d="M25.2 1.5h4.908l-10.72 12.284 12.612 16.716h-9.874l-7.734-10.14-8.85 10.14h-4.91l11.466-13.14-12.098-15.86h10.126l6.99 9.266 8.086-9.266zM23.48 27.556h2.72l-17.554-23.266h-2.916z"></path>
</symbol>
<symbol id="icon-youtube" viewBox="0 0 32 32">
<path d="M16.102 3.998h0.178c1.644 0.006 9.974 0.066 12.22 0.67 1.384 0.384 2.45 1.454 2.823 2.812l0.007 0.028c0.202 0.76 0.344 1.766 0.44 2.804l0.020 0.208 0.044 0.52 0.016 0.208c0.13 1.828 0.146 3.54 0.148 3.914v0.15c-0.002 0.388-0.020 2.216-0.164 4.12l-0.016 0.21-0.018 0.208c-0.1 1.144-0.248 2.28-0.47 3.116-0.38 1.386-1.446 2.456-2.802 2.833l-0.028 0.007c-2.32 0.624-11.138 0.668-12.36 0.67h-0.284c-0.618 0-3.174-0.012-5.854-0.104l-0.34-0.012-0.174-0.008-0.684-0.028c-2.22-0.098-4.334-0.256-5.308-0.52-1.383-0.384-2.45-1.453-2.823-2.81l-0.007-0.028c-0.222-0.834-0.37-1.972-0.47-3.116l-0.016-0.21-0.016-0.208c-0.094-1.198-0.153-2.617-0.164-4.047l-0-0.025v-0.246c0.004-0.43 0.020-1.916 0.128-3.556l0.014-0.206 0.006-0.104 0.016-0.208 0.044-0.52 0.020-0.208c0.096-1.038 0.238-2.046 0.44-2.804 0.38-1.386 1.446-2.456 2.802-2.833l0.028-0.007c0.974-0.26 3.088-0.42 5.308-0.52l0.34-0.014 0.516-0.018 0.342-0.014c1.666-0.058 3.666-0.095 5.673-0.102l0.039-0zM12.8 10.418v9.636l8.314-4.816z"></path>
</symbol>
<symbol id="icon-instagram" viewBox="0 0 32 32">
<path d="M16 0c-4.342 0-4.888 0.020-6.594 0.096-1.706 0.080-2.868 0.348-3.886 0.744-1.11 0.423-2.055 1.051-2.833 1.845l-0.001 0.001c-0.795 0.779-1.423 1.724-1.828 2.781l-0.018 0.053c-0.396 1.016-0.666 2.18-0.744 3.88-0.076 1.71-0.096 2.254-0.096 6.602 0 4.344 0.020 4.888 0.096 6.594 0.080 1.704 0.348 2.866 0.744 3.884 0.41 1.052 0.956 1.944 1.846 2.834 0.888 0.89 1.78 1.438 2.832 1.846 1.020 0.396 2.18 0.666 3.884 0.744 1.708 0.076 2.252 0.096 6.598 0.096s4.888-0.020 6.596-0.096c1.702-0.080 2.868-0.348 3.886-0.744 1.109-0.423 2.054-1.051 2.831-1.845l0.001-0.001c0.89-0.89 1.436-1.782 1.846-2.834 0.394-1.018 0.664-2.18 0.744-3.884 0.076-1.706 0.096-2.25 0.096-6.596s-0.020-4.89-0.096-6.598c-0.080-1.702-0.35-2.866-0.744-3.882-0.423-1.11-1.051-2.055-1.845-2.833l-0.001-0.001c-0.779-0.795-1.724-1.423-2.781-1.828l-0.053-0.018c-1.020-0.396-2.184-0.666-3.886-0.744-1.708-0.076-2.25-0.096-6.598-0.096zM14.566 2.884h1.436c4.272 0 4.778 0.014 6.464 0.092 1.56 0.070 2.408 0.332 2.972 0.55 0.746 0.29 1.28 0.638 1.84 1.198s0.906 1.092 1.196 1.84c0.22 0.562 0.48 1.41 0.55 2.97 0.078 1.686 0.094 2.192 0.094 6.462s-0.016 4.778-0.094 6.464c-0.070 1.56-0.332 2.406-0.55 2.97-0.273 0.72-0.681 1.334-1.197 1.837l-0.001 0.001c-0.56 0.56-1.092 0.906-1.84 1.196-0.56 0.22-1.408 0.48-2.97 0.552-1.686 0.076-2.192 0.094-6.464 0.094s-4.78-0.018-6.466-0.094c-1.56-0.072-2.406-0.332-2.97-0.552-0.721-0.272-1.335-0.679-1.839-1.195l-0.001-0.001c-0.518-0.504-0.927-1.119-1.189-1.806l-0.011-0.034c-0.218-0.562-0.48-1.41-0.55-2.97-0.076-1.686-0.092-2.192-0.092-6.466s0.016-4.776 0.092-6.462c0.072-1.56 0.332-2.408 0.552-2.972 0.29-0.746 0.638-1.28 1.198-1.84s1.092-0.906 1.84-1.196c0.564-0.22 1.41-0.48 2.97-0.552 1.476-0.068 2.048-0.088 5.030-0.090zM24.542 5.54c-1.060 0-1.92 0.86-1.92 1.92s0.86 1.92 1.92 1.92v0c1.060 0 1.92-0.86 1.92-1.92s-0.86-1.92-1.92-1.92v0zM16.002 7.784c-0.038-0.001-0.083-0.001-0.128-0.001-4.539 0-8.218 3.679-8.218 8.218s3.679 8.218 8.218 8.218c0.045 0 0.090-0 0.135-0.001l-0.007 0c4.483-0.072 8.090-3.723 8.090-8.217s-3.607-8.145-8.083-8.217l-0.007-0zM16.002 10.666c2.946 0 5.334 2.388 5.334 5.334s-2.388 5.334-5.334 5.334v0c-2.946 0-5.334-2.388-5.334-5.334s2.388-5.334 5.334-5.334v0z"></path>
</symbol>
<symbol id="icon-facebook" viewBox="0 0 32 32">
<path d="M32 16.098c0-8.892-7.164-16.1-16-16.1-8.84 0.002-16.004 7.208-16.004 16.102 0 8.034 5.852 14.694 13.5 15.902v-11.25h-4.060v-4.652h4.064v-3.55c0-4.034 2.39-6.262 6.044-6.262 1.752 0 3.582 0.314 3.582 0.314v3.96h-2.018c-1.986 0-2.606 1.242-2.606 2.516v3.020h4.436l-0.708 4.652h-3.73v11.25c7.648-1.208 13.5-7.868 13.5-15.902z"></path>
</symbol>
<symbol id="icon-medical" viewBox="0 0 32 32">
<path fill="#3d8ec1" style="fill: var(--color1, #3d8ec1)" d="M22.827 8.44c-0.642 0-1.248-0.248-1.706-0.699-0.458-0.45-0.714-1.051-0.725-1.693-0.002-0.109-0.091-0.197-0.2-0.197h-8.394c-0.109 0-0.198 0.088-0.2 0.197-0.010 0.642-0.267 1.242-0.725 1.693s-1.062 0.699-1.706 0.699c-0.11 0-0.2 0.090-0.2 0.2v2.699c0 2.043 0.531 4.064 1.536 5.842 1.005 1.779 2.461 3.277 4.21 4.331l1.178 0.71c0.032 0.019 0.067 0.029 0.104 0.029s0.072-0.010 0.104-0.029l1.178-0.71c1.75-1.054 3.205-2.554 4.21-4.331 1.005-1.779 1.536-3.8 1.536-5.842v-2.699c0-0.11-0.090-0.2-0.2-0.2z"></path>
<path fill="#fc757e" style="fill: var(--color2, #fc757e)" d="M18.938 10.229c-0.784-0.784-1.827-1.216-2.938-1.216s-2.152 0.432-2.938 1.216c-0.784 0.784-1.216 1.827-1.216 2.938 0 1.109 0.432 2.152 1.216 2.938 0.784 0.784 1.827 1.216 2.938 1.216s2.152-0.432 2.938-1.216c0.784-0.784 1.216-1.827 1.216-2.938s-0.432-2.154-1.216-2.938z"></path>
<path fill="#fff" style="fill: var(--color3, #fff)" d="M16 15.2c-0.11 0-0.2-0.090-0.2-0.2v-3.67c0-0.11 0.090-0.2 0.2-0.2s0.2 0.090 0.2 0.2v3.67c0 0.11-0.090 0.2-0.2 0.2z"></path>
<path fill="#fff" style="fill: var(--color3, #fff)" d="M17.835 13.365h-3.67c-0.11 0-0.2-0.090-0.2-0.2s0.090-0.2 0.2-0.2h3.67c0.11 0 0.2 0.090 0.2 0.2s-0.090 0.2-0.2 0.2z"></path>
</symbol>
<symbol id="icon-shield3" viewBox="0 0 24 24">
<path d="M12 20.862c-1.184-0.672-4.42-2.695-6.050-5.549-0.079-0.138-0.153-0.276-0.223-0.417-0.456-0.911-0.727-1.878-0.727-2.896v-6.307l7-2.625 7 2.625v6.307c0 1.018-0.271 1.985-0.726 2.897-0.070 0.14-0.145 0.279-0.223 0.417-1.631 2.854-4.867 4.876-6.050 5.549zM12.447 22.894c0 0 4.989-2.475 7.34-6.589 0.096-0.168 0.188-0.34 0.276-0.515 0.568-1.135 0.937-2.408 0.937-3.79v-7c0-0.426-0.267-0.79-0.649-0.936l-8-3c-0.236-0.089-0.485-0.082-0.702 0l-8 3c-0.399 0.149-0.646 0.527-0.649 0.936v7c0 1.382 0.369 2.655 0.938 3.791 0.087 0.175 0.179 0.346 0.276 0.515 2.351 4.114 7.34 6.589 7.34 6.589 0.292 0.146 0.62 0.136 0.894 0z"></path>
</symbol>
<symbol id="icon-shield2" viewBox="0 0 20 20">
<path d="M17.604 3.332c-4.614 0.668-5.529-0.499-7.604-2.332-2.075 1.833-2.99 3-7.604 2.332-2.459 12.248 7.604 15.668 7.604 15.668s10.063-3.42 7.604-15.668zM12.473 13.309l-2.473-1.3-2.472 1.3 0.472-2.753-2-1.95 2.764-0.401 1.236-2.505 1.236 2.505 2.764 0.401-2 1.949 0.473 2.754z"></path>
</symbol>
<symbol id="icon-shield1" viewBox="0 0 20 20">
<path d="M19 11c-0.142 2.503-1.491 4.664-3.47 5.922l-0.030 0.018-5.5 3.060-5.5-3.060c-2.009-1.276-3.358-3.437-3.499-5.92l-0.001-0.020v-8c3.38 0 6.5-1.12 9-3 2.5 1.89 5.62 3 9 3v8zM10 12.080l2.92 2.040-1.030-3.41 2.84-2.15-3.56-0.080-1.17-3.36-1.17 3.36-3.56 0.080 2.83 2.14-1.030 3.4 2.93-2.010z"></path>
</symbol>
<symbol id="icon-home" viewBox="0 0 32 32">
<path d="M32 18.451l-16-12.42-16 12.42v-5.064l16-12.42 16 12.42zM28 18v12h-8v-8h-8v8h-8v-12l12-9z"></path>
</symbol>
<symbol id="icon-home2" viewBox="0 0 32 32">
<path d="M16 1l-16 16 3 3 3-3v13h8v-6h4v6h8v-13l3 3 3-3-16-16zM16 14c-1.105 0-2-0.895-2-2s0.895-2 2-2c1.105 0 2 0.895 2 2s-0.895 2-2 2z"></path>
</symbol>
<symbol id="icon-home3" viewBox="0 0 32 32">
<path d="M32 19l-6-6v-9h-4v5l-6-6-16 16v1h4v10h10v-6h4v6h10v-10h4z"></path>
</symbol>
<symbol id="icon-connection" viewBox="0 0 40 32">
<path d="M20 18c3.308 0 6.308 1.346 8.481 3.519l-2.827 2.827c-1.449-1.449-3.449-2.346-5.654-2.346s-4.206 0.897-5.654 2.346l-2.827-2.827c2.173-2.173 5.173-3.519 8.481-3.519zM5.858 15.858c3.777-3.777 8.8-5.858 14.142-5.858s10.365 2.080 14.142 5.858l-2.828 2.828c-3.022-3.022-7.040-4.686-11.314-4.686s-8.292 1.664-11.314 4.686l-2.828-2.828zM30.899 4.201c3.334 1.41 6.329 3.429 8.899 6v0l-2.828 2.828c-4.533-4.533-10.56-7.029-16.971-7.029s-12.438 2.496-16.971 7.029l-2.828-2.828c2.571-2.571 5.565-4.589 8.899-6 3.453-1.461 7.12-2.201 10.899-2.201s7.446 0.741 10.899 2.201zM18 28c0-1.105 0.895-2 2-2s2 0.895 2 2c0 1.105-0.895 2-2 2s-2-0.895-2-2z"></path>
</symbol>
<symbol id="icon-shield" viewBox="0 0 32 32">
<path d="M30 0l-14 4-14-4c0 0-0.141 1.616 0 4l14 4.378 14-4.378c0.141-2.384 0-4 0-4zM2.256 6.097c0.75 7.834 3.547 21.007 13.744 25.903 10.197-4.896 12.995-18.069 13.744-25.903l-13.744 5.167-13.744-5.167z"></path>
</symbol>
<symbol id="icon-sphere" viewBox="0 0 32 32">
<path d="M15 2c-8.284 0-15 6.716-15 15s6.716 15 15 15c8.284 0 15-6.716 15-15s-6.716-15-15-15zM23.487 22c0.268-1.264 0.437-2.606 0.492-4h3.983c-0.104 1.381-0.426 2.722-0.959 4h-3.516zM6.513 12c-0.268 1.264-0.437 2.606-0.492 4h-3.983c0.104-1.381 0.426-2.722 0.959-4h3.516zM21.439 12c0.3 1.28 0.481 2.62 0.54 4h-5.979v-4h5.439zM16 10v-5.854c0.456 0.133 0.908 0.355 1.351 0.668 0.831 0.586 1.625 1.488 2.298 2.609 0.465 0.775 0.867 1.638 1.203 2.578h-4.852zM10.351 7.422c0.673-1.121 1.467-2.023 2.298-2.609 0.443-0.313 0.895-0.535 1.351-0.668v5.854h-4.852c0.336-0.94 0.738-1.803 1.203-2.578zM14 12v4h-5.979c0.059-1.38 0.24-2.72 0.54-4h5.439zM2.997 22c-0.533-1.278-0.854-2.619-0.959-4h3.983c0.055 1.394 0.224 2.736 0.492 4h-3.516zM8.021 18h5.979v4h-5.439c-0.3-1.28-0.481-2.62-0.54-4zM14 24v5.854c-0.456-0.133-0.908-0.355-1.351-0.668-0.831-0.586-1.625-1.488-2.298-2.609-0.465-0.775-0.867-1.638-1.203-2.578h4.852zM19.649 26.578c-0.673 1.121-1.467 2.023-2.298 2.609-0.443 0.312-0.895 0.535-1.351 0.668v-5.854h4.852c-0.336 0.94-0.738 1.802-1.203 2.578zM16 22v-4h5.979c-0.059 1.38-0.24 2.72-0.54 4h-5.439zM23.98 16c-0.055-1.394-0.224-2.736-0.492-4h3.516c0.533 1.278 0.855 2.619 0.959 4h-3.983zM25.958 10h-2.997c-0.582-1.836-1.387-3.447-2.354-4.732 1.329 0.636 2.533 1.488 3.585 2.54 0.671 0.671 1.261 1.404 1.766 2.192zM5.808 7.808c1.052-1.052 2.256-1.904 3.585-2.54-0.967 1.285-1.771 2.896-2.354 4.732h-2.997c0.504-0.788 1.094-1.521 1.766-2.192zM4.042 24h2.997c0.583 1.836 1.387 3.447 2.354 4.732-1.329-0.636-2.533-1.488-3.585-2.54-0.671-0.671-1.261-1.404-1.766-2.192zM24.192 26.192c-1.052 1.052-2.256 1.904-3.585 2.54 0.967-1.285 1.771-2.896 2.354-4.732h2.997c-0.504 0.788-1.094 1.521-1.766 2.192z"></path>
</symbol>
<symbol id="icon-mail" viewBox="0 0 32 32">
<path d="M26.666 0h-21.332c-2.934 0-5.334 2.4-5.334 5.333v21.333c0 2.934 2.4 5.334 5.334 5.334h21.332c2.936 0 5.334-2.4 5.334-5.334v-21.333c0-2.934-2.398-5.333-5.334-5.333zM8 8h16c0.286 0 0.563 0.061 0.817 0.177l-8.817 10.286-8.817-10.287c0.254-0.116 0.531-0.177 0.817-0.177zM6 22v-12c0-0.042 0.002-0.084 0.004-0.125l5.864 6.842-5.8 5.8c-0.045-0.167-0.069-0.34-0.069-0.517zM24 24h-16c-0.177 0-0.35-0.024-0.517-0.069l5.691-5.691 2.826 3.297 2.826-3.297 5.691 5.691c-0.167 0.045-0.34 0.069-0.517 0.069zM26 22c0 0.177-0.024 0.35-0.069 0.517l-5.8-5.8 5.864-6.842c0.003 0.041 0.004 0.083 0.004 0.125v12z"></path>
</symbol>
<symbol id="icon-mail4" viewBox="0 0 32 32">
<path d="M16 0c-8.837 0-16 7.163-16 16s7.163 16 16 16 16-7.163 16-16-7.163-16-16-16zM8 8h16c0.286 0 0.563 0.061 0.817 0.177l-8.817 10.286-8.817-10.287c0.254-0.116 0.531-0.177 0.817-0.177zM6 22v-12c0-0.042 0.002-0.084 0.004-0.125l5.864 6.842-5.8 5.8c-0.045-0.167-0.069-0.34-0.069-0.517zM24 24h-16c-0.177 0-0.35-0.024-0.517-0.069l5.691-5.691 2.826 3.297 2.826-3.297 5.691 5.691c-0.167 0.045-0.34 0.069-0.517 0.069zM26 22c0 0.177-0.024 0.35-0.069 0.517l-5.8-5.8 5.865-6.842c0.003 0.041 0.004 0.083 0.004 0.125v12z"></path>
</symbol>
<symbol id="icon-amazon" viewBox="0 0 32 32">
<path d="M28.925 27.663c-3.506 2.587-8.581 3.962-12.956 3.962-6.131 0-11.65-2.262-15.825-6.038-0.325-0.294-0.038-0.7 0.356-0.469 4.506 2.625 10.081 4.2 15.838 4.2 3.881 0 8.15-0.806 12.081-2.475 0.587-0.25 1.087 0.394 0.506 0.819z"></path>
<path d="M30.381 26c-0.45-0.575-2.962-0.275-4.094-0.137-0.344 0.038-0.394-0.256-0.087-0.475 2.006-1.406 5.294-1 5.675-0.531 0.387 0.475-0.1 3.769-1.981 5.344-0.288 0.244-0.563 0.113-0.438-0.206 0.431-1.056 1.375-3.419 0.925-3.994z"></path>
<path d="M22.106 23.675l0.006 0.006c0.775-0.681 2.169-1.9 2.956-2.556 0.313-0.25 0.256-0.669 0.012-1.019-0.706-0.975-1.456-1.769-1.456-3.569v-6c0-2.544 0.175-4.875-1.694-6.625-1.475-1.413-3.925-1.913-5.8-1.913-3.662 0-7.75 1.369-8.606 5.894-0.094 0.481 0.263 0.738 0.575 0.806l3.731 0.406c0.35-0.019 0.6-0.363 0.669-0.713 0.319-1.556 1.625-2.313 3.094-2.313 0.794 0 1.694 0.287 2.163 1 0.538 0.794 0.469 1.875 0.469 2.794v0.5c-2.231 0.25-5.15 0.412-7.238 1.331-2.412 1.044-4.106 3.169-4.106 6.294 0 4 2.519 6 5.763 6 2.738 0 4.231-0.644 6.344-2.806 0.7 1.012 0.925 1.506 2.206 2.569 0.294 0.156 0.656 0.144 0.913-0.087zM18.225 14.287c0 1.5 0.038 2.75-0.719 4.081-0.613 1.087-1.581 1.75-2.662 1.75-1.475 0-2.338-1.125-2.338-2.788 0-3.281 2.944-3.875 5.725-3.875v0.831z"></path>
</symbol>
<symbol id="icon-google-plus" viewBox="0 0 32 32">
<path d="M10.181 14.294v3.494h5.775c-0.231 1.5-1.744 4.394-5.775 4.394-3.475 0-6.313-2.881-6.313-6.431s2.838-6.431 6.313-6.431c1.981 0 3.3 0.844 4.056 1.569l2.762-2.662c-1.775-1.656-4.075-2.662-6.819-2.662-5.631 0.006-10.181 4.556-10.181 10.188s4.55 10.181 10.181 10.181c5.875 0 9.775-4.131 9.775-9.95 0-0.669-0.075-1.181-0.163-1.688h-9.613z"></path>
<path d="M32 14h-3v-3h-3v3h-3v3h3v3h3v-3h3z"></path>
</symbol>
<symbol id="icon-google-plus2" viewBox="0 0 32 32">
<path d="M29 0h-26c-1.65 0-3 1.35-3 3v26c0 1.65 1.35 3 3 3h26c1.65 0 3-1.35 3-3v-26c0-1.65-1.35-3-3-3zM12 24c-4.425 0-8-3.575-8-8s3.575-8 8-8c2.162 0 3.969 0.787 5.363 2.094l-2.175 2.088c-0.594-0.569-1.631-1.231-3.188-1.231-2.731 0-4.963 2.263-4.963 5.050s2.231 5.050 4.963 5.050c3.169 0 4.356-2.275 4.538-3.45h-4.537v-2.744h7.556c0.069 0.4 0.125 0.8 0.125 1.325 0 4.575-3.063 7.819-7.681 7.819zM28 16h-2v2h-2v-2h-2v-2h2v-2h2v2h2v2z"></path>
</symbol>
<symbol id="icon-youtube2" viewBox="0 0 80 32">
<path d="M10.75 5.294c0.007-0.027 0.011-0.046 0.012-0.056l0.033-0.236-1.48-0.008c-1.337-0.008-1.746 0-1.783 0.034-0.018 0.016-0.479 1.77-1.302 4.946-0.392 1.515-0.723 2.725-0.734 2.689s-0.481-1.766-1.044-3.843c-0.563-2.078-1.034-3.789-1.048-3.803-0.019-0.019-1.812-0.028-3.263-0.016-0.21 0.002-0.327-0.41 1.876 6.598 0.305 0.97 0.762 2.344 1.015 3.052 0.292 0.817 0.5 1.448 0.642 1.974 0.251 1.002 0.26 1.63 0.205 2.363-0.063 0.847-0.073 6.826-0.011 6.926 0.047 0.077 2.851 0.112 3.116 0.040 0.042-0.012 0.071-0.053 0.090-0.279 0.066-0.194 0.071-0.968 0.071-4.18v-4.103l0.179-0.566c0.117-0.37 0.413-1.344 0.656-2.163s0.538-1.801 0.654-2.18c1.057-3.447 2.067-6.838 2.094-7.032l0.022-0.158z"></path>
<path d="M26.441 10.27l-0.001 0.214-0.033 0-0.019 5.906-0.018 5.726-0.458 0.467c-0.513 0.522-0.925 0.722-1.297 0.629-0.405-0.102-0.395 0.056-0.429-6.712l-0.031-6.23h-2.947v0.214h-0.034v6.759c0 7.242-0 7.237 0.367 7.965 0.293 0.579 0.719 0.861 1.45 0.958h0c0.962 0.128 2-0.308 2.962-1.244l0.418-0.407v0.701c0 0.606 0.017 0.706 0.127 0.737 0.18 0.050 2.412 0.053 2.653 0.004l0.2-0.041v-0.207l0.034-0.007v-15.472l-2.944 0.039z"></path>
<path d="M18.965 13.323c-0.279-1.198-0.802-2.004-1.664-2.561-1.353-0.875-2.897-0.967-4.331-0.259-1.045 0.516-1.717 1.372-2.065 2.628-0.041 0.15-0.072 0.275-0.095 0.463-0.088 0.443-0.099 1.105-0.122 4.186-0.035 4.748 0.019 5.313 0.614 6.391 0.583 1.058 1.794 1.833 3.112 1.993 0.397 0.048 1.201-0.027 1.663-0.155 1.051-0.291 2.058-1.122 2.504-2.065 0.192-0.407 0.309-0.691 0.379-1.208 0.13-0.707 0.14-1.849 0.14-4.762-0-3.715-0.012-4.121-0.136-4.651zM15.604 23c-0.247 0.188-0.679 0.27-1.031 0.195-0.271-0.058-0.636-0.482-0.748-0.869-0.14-0.482-0.151-7.187-0.030-8.502 0.199-0.658 0.756-1.002 1.364-0.838 0.474 0.128 0.716 0.424 0.854 1.046 0.103 0.461 0.115 1.035 0.093 4.414-0.014 2.241-0.022 3.336-0.096 3.924-0.074 0.371-0.197 0.47-0.407 0.63z"></path>
<path d="M71.887 16.692h1.424l-0.023-1.29c-0.022-1.183-0.039-1.319-0.198-1.64-0.249-0.507-0.617-0.731-1.201-0.731-0.701 0-1.146 0.339-1.356 1.036-0.089 0.296-0.183 2.334-0.116 2.51 0.038 0.098 0.241 0.116 1.469 0.116z"></path>
<path d="M62.369 13.757c-0.19-0.383-0.543-0.571-0.954-0.556-0.319 0.011-0.674 0.146-1.015 0.407l-0.254 0.193v9.269l0.254 0.193c0.576 0.439 1.209 0.532 1.644 0.241 0.172-0.115 0.285-0.274 0.372-0.527 0.114-0.329 0.124-0.75 0.109-4.649-0.015-4.064-0.024-4.303-0.157-4.57z"></path>
<path d="M80.027 9.582c-0.284-3.401-0.509-4.505-1.211-5.923-0.929-1.878-2.272-2.868-4.184-3.086-1.478-0.168-7.041-0.405-12.189-0.52-8.912-0.198-23.564 0.183-25.436 0.662-0.865 0.221-1.513 0.597-2.188 1.269-1.183 1.177-1.887 2.865-2.17 5.2-0.647 5.331-0.66 11.773-0.037 17.297 0.268 2.376 0.82 3.92 1.857 5.192 0.647 0.794 1.761 1.469 2.758 1.67 0.7 0.141 4.201 0.337 9.3 0.521 0.76 0.027 2.771 0.074 4.47 0.105 3.541 0.063 10.051 0.026 13.772-0.079 2.504-0.070 7.069-0.255 7.922-0.321 0.24-0.019 0.796-0.054 1.236-0.079 1.477-0.083 2.417-0.393 3.3-1.086 1.142-0.897 2.027-2.556 2.4-4.501 0.354-1.84 0.59-5.118 0.638-8.839 0.040-3.109-0.013-4.787-0.238-7.482zM44.54 8.35l-1.656 0.020-0.073 17.661-1.435 0.018c-1.11 0.015-1.447-0.001-1.474-0.073-0.019-0.051-0.042-4.032-0.052-8.849l-0.018-8.758-3.234-0.041v-2.76l9.557 0.039 0.041 2.721-1.656 0.020zM54.694 18.472v7.595h-2.616v-0.799c0-0.601-0.023-0.799-0.093-0.799-0.051 0-0.288 0.198-0.527 0.441-0.517 0.526-1.13 0.949-1.653 1.145-1.083 0.405-2.112 0.169-2.551-0.586-0.401-0.691-0.409-0.845-0.409-8.010v-6.58h2.614l0.020 6.196c0.019 6.088 0.022 6.2 0.168 6.448 0.193 0.329 0.488 0.417 0.956 0.288 0.276-0.076 0.464-0.21 0.911-0.654l0.563-0.561v-11.717h2.616v7.595zM64.899 24.982c-0.23 0.513-0.744 1.016-1.165 1.14-1.099 0.324-1.98 0.060-2.998-0.897-0.316-0.297-0.61-0.538-0.654-0.538-0.053 0-0.082 0.233-0.082 0.69v0.69h-2.616v-20.495h2.616v3.343c0 1.839 0.025 3.343 0.054 3.343s0.306-0.244 0.613-0.541c0.707-0.683 1.298-0.981 2.049-1.038 1.338-0.101 2.135 0.587 2.501 2.16 0.114 0.491 0.125 1.051 0.125 5.596-0 5.537-0.001 5.56-0.443 6.546zM75.968 21.943c-0.023 0.57-0.092 1.223-0.154 1.454-0.364 1.349-1.332 2.304-2.732 2.696-1.885 0.527-3.96-0.337-4.788-1.994-0.465-0.93-0.481-1.116-0.481-5.662 0-3.707 0.013-4.162 0.132-4.667 0.336-1.431 1.168-2.357 2.578-2.871 0.408-0.149 0.835-0.225 1.261-0.234 1.521-0.031 3.031 0.787 3.663 2.119 0.427 0.899 0.48 1.283 0.522 3.816l0.039 2.271-5.578 0.039-0.020 1.526c-0.029 2.153 0.116 2.815 0.697 3.207 0.489 0.329 1.24 0.305 1.649-0.055 0.383-0.337 0.491-0.698 0.529-1.753l0.034-0.927h2.694l-0.043 1.036z"></path>
</symbol>
<symbol id="icon-appleinc" viewBox="0 0 32 32">
<path d="M24.734 17.003c-0.040-4.053 3.305-5.996 3.454-6.093-1.88-2.751-4.808-3.127-5.851-3.171-2.492-0.252-4.862 1.467-6.127 1.467-1.261 0-3.213-1.43-5.28-1.392-2.716 0.040-5.221 1.579-6.619 4.012-2.822 4.897-0.723 12.151 2.028 16.123 1.344 1.944 2.947 4.127 5.051 4.049 2.026-0.081 2.793-1.311 5.242-1.311s3.138 1.311 5.283 1.271c2.18-0.041 3.562-1.981 4.897-3.931 1.543-2.255 2.179-4.439 2.216-4.551-0.048-0.022-4.252-1.632-4.294-6.473zM20.705 5.11c1.117-1.355 1.871-3.235 1.665-5.11-1.609 0.066-3.559 1.072-4.713 2.423-1.036 1.199-1.942 3.113-1.699 4.951 1.796 0.14 3.629-0.913 4.747-2.264z"></path>
</symbol>
<symbol id="icon-android" viewBox="0 0 32 32">
<path d="M28 12c-1.1 0-2 0.9-2 2v8c0 1.1 0.9 2 2 2s2-0.9 2-2v-8c0-1.1-0.9-2-2-2zM4 12c-1.1 0-2 0.9-2 2v8c0 1.1 0.9 2 2 2s2-0.9 2-2v-8c0-1.1-0.9-2-2-2zM7 23c0 1.657 1.343 3 3 3v0 4c0 1.1 0.9 2 2 2s2-0.9 2-2v-4h4v4c0 1.1 0.9 2 2 2s2-0.9 2-2v-4c1.657 0 3-1.343 3-3v-11h-18v11z"></path>
<path d="M24.944 10c-0.304-2.746-1.844-5.119-4.051-6.551l1.001-2.001c0.247-0.494 0.047-1.095-0.447-1.342s-1.095-0.047-1.342 0.447l-1.004 2.009-0.261-0.104c-0.893-0.297-1.848-0.458-2.84-0.458s-1.947 0.161-2.84 0.458l-0.261 0.104-1.004-2.009c-0.247-0.494-0.848-0.694-1.342-0.447s-0.694 0.848-0.447 1.342l1.001 2.001c-2.207 1.433-3.747 3.805-4.051 6.551v1h17.944v-1h-0.056zM13 8c-0.552 0-1-0.448-1-1s0.447-0.999 0.998-1c0.001 0 0.002 0 0.003 0s0.001-0 0.002-0c0.551 0.001 0.998 0.448 0.998 1s-0.448 1-1 1zM19 8c-0.552 0-1-0.448-1-1s0.446-0.999 0.998-1c0 0 0.001 0 0.002 0s0.002-0 0.003-0c0.551 0.001 0.998 0.448 0.998 1s-0.448 1-1 1z"></path>
</symbol>
<symbol id="icon-skype" viewBox="0 0 32 32">
<path d="M13.3 1.169c-0.050-0.031-0.106-0.056-0.156-0.081-0.056 0.012-0.106 0.019-0.162 0.031l0.319 0.050z"></path>
<path d="M1.15 13.156c-0.012 0.056-0.019 0.113-0.025 0.162 0.031 0.050 0.050 0.1 0.081 0.15l-0.056-0.313z"></path>
<path d="M30.837 18.831c0.012-0.056 0.019-0.113 0.031-0.169-0.031-0.050-0.050-0.1-0.081-0.15l0.050 0.319z"></path>
<path d="M18.5 30.719c0.050 0.031 0.106 0.056 0.156 0.081 0.056-0.012 0.113-0.019 0.169-0.025l-0.325-0.056z"></path>
<path d="M30.869 18.663c-0.012 0.056-0.019 0.113-0.031 0.169l-0.056-0.325c0.031 0.056 0.056 0.106 0.087 0.156 0.163-0.9 0.25-1.819 0.25-2.738 0-2.037-0.4-4.019-1.188-5.881-0.762-1.8-1.85-3.419-3.238-4.806s-3.006-2.475-4.8-3.237c-1.863-0.788-3.844-1.188-5.881-1.188-0.963 0-1.925 0.088-2.863 0.269 0 0-0.006 0-0.006 0 0.050 0.025 0.106 0.050 0.156 0.081l-0.319-0.050c0.056-0.012 0.106-0.019 0.162-0.031-1.287-0.681-2.731-1.050-4.194-1.050-2.388 0-4.638 0.931-6.325 2.619s-2.619 3.937-2.619 6.325c0 1.519 0.394 3.019 1.125 4.338 0.012-0.056 0.019-0.113 0.025-0.162l0.056 0.319c-0.031-0.050-0.056-0.1-0.081-0.15-0.15 0.856-0.225 1.731-0.225 2.606 0 2.038 0.4 4.019 1.188 5.881 0.763 1.8 1.85 3.413 3.237 4.8s3.006 2.475 4.806 3.238c1.863 0.788 3.844 1.188 5.881 1.188 0.887 0 1.775-0.081 2.644-0.238-0.050-0.031-0.1-0.056-0.156-0.081l0.325 0.056c-0.056 0.012-0.113 0.019-0.169 0.025 1.337 0.756 2.856 1.163 4.4 1.163 2.387 0 4.637-0.931 6.325-2.619s2.619-3.938 2.619-6.325c-0.006-1.519-0.4-3.019-1.137-4.35zM16.069 25.181c-5.369 0-7.769-2.637-7.769-4.619 0-1.012 0.75-1.725 1.781-1.725 2.3 0 1.7 3.3 5.988 3.3 2.194 0 3.406-1.194 3.406-2.413 0-0.731-0.363-1.544-1.806-1.9l-4.775-1.194c-3.844-0.963-4.544-3.044-4.544-5 0-4.056 3.819-5.581 7.406-5.581 3.306 0 7.2 1.825 7.2 4.263 0 1.044-0.906 1.65-1.938 1.65-1.962 0-1.6-2.713-5.55-2.713-1.963 0-3.044 0.887-3.044 2.156s1.55 1.675 2.894 1.981l3.538 0.787c3.869 0.863 4.85 3.125 4.85 5.25 0 3.294-2.531 5.756-7.637 5.756z"></path>
</symbol>
<symbol id="icon-paypal" viewBox="0 0 32 32">
<path d="M29.063 9.644c-1.494 6.631-6.106 10.131-13.375 10.131h-2.419l-1.681 10.675h-2.025l-0.106 0.688c-0.069 0.456 0.281 0.863 0.738 0.863h5.175c0.613 0 1.131-0.444 1.231-1.050l0.050-0.262 0.975-6.181 0.063-0.337c0.094-0.606 0.619-1.050 1.231-1.050h0.769c5.012 0 8.938-2.038 10.088-7.925 0.431-2.238 0.269-4.137-0.712-5.55z"></path>
<path d="M25.969 2.413c-1.481-1.688-4.163-2.413-7.587-2.413h-9.944c-0.7 0-1.3 0.506-1.406 1.2l-4.144 26.262c-0.081 0.519 0.319 0.988 0.844 0.988h6.144l1.544-9.781-0.050 0.306c0.106-0.694 0.7-1.2 1.4-1.2h2.919c5.731 0 10.219-2.325 11.531-9.063 0.038-0.2 0.075-0.394 0.1-0.581 0.387-2.487 0-4.188-1.35-5.719z"></path>
</symbol>
<symbol id="icon-firefox" viewBox="0 0 32 32">
<path d="M31.954 10.442l-0.371 2.377c0 0-0.53-4.402-1.179-6.047-0.995-2.521-1.438-2.501-1.441-2.498 0.667 1.694 0.546 2.604 0.546 2.604s-1.181-3.219-4.303-4.243c-3.459-1.134-5.33-0.824-5.547-0.765-0.033-0-0.064-0-0.095-0 0.026 0.002 0.050 0.005 0.076 0.007-0.001 0.001-0.003 0.001-0.003 0.002 0.014 0.017 3.822 0.666 4.497 1.594 0 0-1.617 0-3.227 0.464-0.073 0.021 5.923 0.749 7.148 6.74 0 0-0.657-1.371-1.47-1.604 0.535 1.626 0.397 4.712-0.112 6.245-0.066 0.197-0.133-0.853-1.135-1.305 0.321 2.301-0.019 5.952-1.616 6.957-0.124 0.078 1.001-3.603 0.226-2.18-4.46 6.838-9.731 3.155-12.101 1.535 1.215 0.264 3.52-0.041 4.541-0.8 0.001-0.001 0.002-0.002 0.004-0.003 1.108-0.758 1.765-1.311 2.354-1.18s0.982-0.46 0.524-0.985c-0.459-0.526-1.572-1.249-3.079-0.855-1.063 0.278-2.379 1.454-4.389 0.264-1.543-0.914-1.688-1.673-1.702-2.199 0.038-0.186 0.086-0.361 0.143-0.52 0.178-0.496 0.716-0.646 1.015-0.764 0.508 0.087 0.946 0.246 1.405 0.481 0.006-0.153 0.008-0.356-0.001-0.586 0.044-0.088 0.017-0.352-0.054-0.674-0.041-0.322-0.107-0.655-0.211-0.959 0-0 0.001-0 0.001-0 0.002-0.001 0.003-0.001 0.005-0.002s0.005-0.004 0.007-0.006c0-0.001 0.001-0.001 0.001-0.002 0.003-0.004 0.005-0.008 0.006-0.015 0.032-0.144 0.376-0.423 0.804-0.722 0.383-0.268 0.834-0.553 1.19-0.774 0.314-0.195 0.554-0.34 0.605-0.378 0.019-0.015 0.042-0.032 0.068-0.051 0.005-0.004 0.009-0.007 0.014-0.011 0.003-0.002 0.006-0.005 0.009-0.007 0.169-0.135 0.421-0.389 0.474-0.924 0-0.001 0-0.002 0-0.004 0.002-0.016 0.003-0.032 0.004-0.048 0.001-0.011 0.002-0.023 0.002-0.034 0-0.009 0.001-0.018 0.001-0.027 0.001-0.021 0.002-0.043 0.002-0.065 0-0.001 0-0.002 0-0.004 0.001-0.052-0-0.106-0.003-0.163-0.002-0.032-0.004-0.060-0.009-0.086-0-0.001-0.001-0.003-0.001-0.004-0.001-0.003-0.001-0.005-0.002-0.008-0.001-0.005-0.002-0.009-0.004-0.013-0-0.001-0-0.001-0.001-0.001-0.002-0.005-0.004-0.010-0.005-0.014-0-0-0-0-0-0.001-0.055-0.128-0.26-0.177-1.108-0.191-0.001-0-0.002-0-0.002-0v0c-0.346-0.006-0.798-0.006-1.391-0.004-1.039 0.004-1.613-1.016-1.797-1.41 0.251-1.389 0.977-2.379 2.17-3.051 0.023-0.013 0.018-0.023-0.009-0.031 0.233-0.141-2.82-0.004-4.225 1.782-1.247-0.31-2.333-0.289-3.269-0.069-0.18-0.005-0.404-0.027-0.67-0.083-0.623-0.564-1.514-1.606-1.562-2.85 0 0-0.003 0.002-0.008 0.006-0.001-0.012-0.002-0.024-0.002-0.036 0 0-1.897 1.458-1.613 5.434-0.001 0.064-0.002 0.125-0.004 0.184-0.514 0.696-0.768 1.282-0.787 1.411-0.455 0.926-0.917 2.32-1.292 4.437 0 0 0.263-0.833 0.79-1.777-0.388 1.188-0.693 3.036-0.514 5.808 0 0 0.047-0.615 0.215-1.5 0.131 1.719 0.704 3.841 2.152 6.337 2.78 4.791 7.052 7.211 11.775 7.582 0.839 0.069 1.689 0.071 2.544 0.006 0.079-0.006 0.157-0.011 0.236-0.018 0.968-0.068 1.942-0.214 2.914-0.449 13.287-3.212 11.842-19.256 11.842-19.256z"></path>
</symbol>
</defs>
</svg>
