<svg aria-hidden="true" style="position: absolute; width: 0; height: 0; overflow: hidden;" version="1.1" xmlns="http://www.w3.org/2000/svg" xmlns:xlink="http://www.w3.org/1999/xlink">
  <defs>
  
   <!-- Define the linear gradient -->
<linearGradient id="gradient1" x1="0%" y1="0%" x2="100%" y2="0%">
  <stop offset="0%" style="stop-color: #000; stop-opacity: 1" /> <!-- Light green -->
  <stop offset="100%" style="stop-color: #006400; stop-opacity: 1" /> <!-- Deep green -->
</linearGradient>


    <!-- Define your symbols -->
    <symbol id="icon-shield3" viewBox="0 0 24 24">
      <path d="M12 20.862c-1.184-0.672-4.42-2.695-6.050-5.549-0.079-0.138-0.153-0.276-0.223-0.417-0.456-0.911-0.727-1.878-0.727-2.896v-6.307l7-2.625 7 2.625v6.307c0 1.018-0.271 1.985-0.726 2.897-0.070 0.14-0.145 0.279-0.223 0.417-1.631 2.854-4.867 4.876-6.050 5.549zM12.447 22.894c0 0 4.989-2.475 7.34-6.589 0.096-0.168 0.188-0.34 0.276-0.515 0.568-1.135 0.937-2.408 0.937-3.79v-7c0-0.426-0.267-0.79-0.649-0.936l-8-3c-0.236-0.089-0.485-0.082-0.702 0l-8 3c-0.399 0.149-0.646 0.527-0.649 0.936v7c0 1.382 0.369 2.655 0.938 3.791 0.087 0.175 0.179 0.346 0.276 0.515 2.351 4.114 7.34 6.589 7.34 6.589 0.292 0.146 0.62 0.136 0.894 0z" fill="url(#gradient1)"></path>
    </symbol>
    <symbol id="icon-shield2" viewBox="0 0 20 20">
      <path d="M17.604 3.332c-4.614 0.668-5.529-0.499-7.604-2.332-2.075 1.833-2.99 3-7.604 2.332-2.459 12.248 7.604 15.668 7.604 15.668s10.063-3.42 7.604-15.668zM12.473 13.309l-2.473-1.3-2.472 1.3 0.472-2.753-2-1.95 2.764-0.401 1.236-2.505 1.236 2.505 2.764 0.401-2 1.949 0.473 2.754z" fill="url(#gradient1)"></path>
    </symbol>
    <symbol id="icon-shield1" viewBox="0 0 20 20">
      <path d="M19 11c-0.142 2.503-1.491 4.664-3.47 5.922l-0.030 0.018-5.5 3.060-5.5-3.060c-2.009-1.276-3.358-3.437-3.499-5.92l-0.001-0.020v-8c3.38 0 6.5-1.12 9-3 2.5 1.89 5.62 3 9 3v8zM10 12.080l2.92 2.040-1.030-3.41 2.84-2.15-3.56-0.080-1.17-3.36-1.17 3.36-3.56 0.080 2.83 2.14-1.030 3.4 2.93-2.010z" fill="url(#gradient1)"></path>
    </symbol>
    <symbol id="icon-medical" viewBox="0 0 32 32">
      <path fill="#3d8ec1" style="fill: var(--color1, #3d8ec1)" d="M22.827 8.44c-0.642 0-1.248-0.248-1.706-0.699-0.458-0.45-0.714-1.051-0.725-1.693-0.002-0.109-0.091-0.197-0.2-0.197h-8.394c-0.109 0-0.198 0.088-0.2 0.197-0.010 0.642-0.267 1.242-0.725 1.693s-1.062 0.699-1.706 0.699c-0.11 0-0.2 0.090-0.2 0.2v2.699c0 2.043 0.531 4.064 1.536 5.842 1.005 1.779 2.461 3.277 4.21 4.331l1.178 0.71c0.032 0.019 0.067 0.029 0.104 0.029s0.072-0.010 0.104-0.029l1.178-0.71c1.75-1.054 3.205-2.554 4.21-4.331 1.005-1.779 1.536-3.8 1.536-5.842v-2.699c0-0.11-0.090-0.2-0.2-0.2z"></path>
      <path fill="#fc757e" style="fill: var(--color2, #fc757e)" d="M18.938 10.229c-0.784-0.784-1.827-1.216-2.938-1.216s-2.152 0.432-2.938 1.216c-0.784 0.784-1.216 1.827-1.216 2.938 0 1.109 0.432 2.152 1.216 2.938 0.784 0.784 1.827 1.216 2.938 1.216s2.152-0.432 2.938-1.216c0.784-0.784 1.216-1.827 1.216-2.938s-0.432-2.154-1.216-2.938z"></path>
      <path fill="#fff" style="fill: var(--color3, #fff)" d="M16 15.2c-0.11 0-0.2-0.090-0.2-0.2v-3.67c0-0.11 0.090-0.2 0.2-0.2s0.2 0.090 0.2 0.2v3.67c0 0.11-0.090 0.2-0.2 0.2z"></path>
      <path fill="#fff" style="fill: var(--color3, #fff)" d="M17.835 13.365h-3.67c-0.11 0-0.2-0.090-0.2-0.2s0.090-0.2 0.2-0.2h3.67c0.11 0 0.2 0.090 0.2 0.2s-0.090 0.2-0.2 0.2z"></path>
    </symbol>

    <symbol id="icon-sphere" viewBox="0 0 32 32">
<path d="M15 2c-8.284 0-15 6.716-15 15s6.716 15 15 15c8.284 0 15-6.716 15-15s-6.716-15-15-15zM23.487 22c0.268-1.264 0.437-2.606 0.492-4h3.983c-0.104 1.381-0.426 2.722-0.959 4h-3.516zM6.513 12c-0.268 1.264-0.437 2.606-0.492 4h-3.983c0.104-1.381 0.426-2.722 0.959-4h3.516zM21.439 12c0.3 1.28 0.481 2.62 0.54 4h-5.979v-4h5.439zM16 10v-5.854c0.456 0.133 0.908 0.355 1.351 0.668 0.831 0.586 1.625 1.488 2.298 2.609 0.465 0.775 0.867 1.638 1.203 2.578h-4.852zM10.351 7.422c0.673-1.121 1.467-2.023 2.298-2.609 0.443-0.313 0.895-0.535 1.351-0.668v5.854h-4.852c0.336-0.94 0.738-1.803 1.203-2.578zM14 12v4h-5.979c0.059-1.38 0.24-2.72 0.54-4h5.439zM2.997 22c-0.533-1.278-0.854-2.619-0.959-4h3.983c0.055 1.394 0.224 2.736 0.492 4h-3.516zM8.021 18h5.979v4h-5.439c-0.3-1.28-0.481-2.62-0.54-4zM14 24v5.854c-0.456-0.133-0.908-0.355-1.351-0.668-0.831-0.586-1.625-1.488-2.298-2.609-0.465-0.775-0.867-1.638-1.203-2.578h4.852zM19.649 26.578c-0.673 1.121-1.467 2.023-2.298 2.609-0.443 0.312-0.895 0.535-1.351 0.668v-5.854h4.852c-0.336 0.94-0.738 1.802-1.203 2.578zM16 22v-4h5.979c-0.059 1.38-0.24 2.72-0.54 4h-5.439zM23.98 16c-0.055-1.394-0.224-2.736-0.492-4h3.516c0.533 1.278 0.855 2.619 0.959 4h-3.983zM25.958 10h-2.997c-0.582-1.836-1.387-3.447-2.354-4.732 1.329 0.636 2.533 1.488 3.585 2.54 0.671 0.671 1.261 1.404 1.766 2.192zM5.808 7.808c1.052-1.052 2.256-1.904 3.585-2.54-0.967 1.285-1.771 2.896-2.354 4.732h-2.997c0.504-0.788 1.094-1.521 1.766-2.192zM4.042 24h2.997c0.583 1.836 1.387 3.447 2.354 4.732-1.329-0.636-2.533-1.488-3.585-2.54-0.671-0.671-1.261-1.404-1.766-2.192zM24.192 26.192c-1.052 1.052-2.256 1.904-3.585 2.54 0.967-1.285 1.771-2.896 2.354-4.732h2.997c-0.504 0.788-1.094 1.521-1.766 2.192z" fill="url(#gradient1)"></path>
</symbol>
  </defs>
</svg>
